<svg width="160" height="160" viewBox="0 0 160 160" fill="none" xmlns="http://www.w3.org/2000/svg">
<circle cx="80" cy="80" r="80" fill="white"/>
<path d="M115.338 109.749L109.742 115.349L84.4794 90.0863L90.0873 84.4863L115.338 109.749ZM84.4363 44.7686C74.3186 44.7686 64.201 48.6118 56.4363 56.3372L56.3971 56.3765C40.9069 71.8667 40.9069 97.0039 56.3971 112.494L112.475 56.3765C104.75 48.651 94.5931 44.7686 84.4363 44.7686ZM57.0637 100.729C54.1618 95.8667 52.5931 90.298 52.5931 84.4549C52.5931 80.8078 53.2206 77.3176 54.3971 73.9843C55.1422 81.4745 57.8873 88.847 62.5147 95.3176L57.0637 100.729ZM68.201 89.5921C62.9069 81.5529 60.9069 71.9451 62.7892 62.8078C65.0637 62.3372 67.3382 62.1019 69.652 62.1019C76.7108 62.1019 83.5735 64.2588 89.5735 68.2196L68.201 89.5921ZM73.9657 54.4157C77.299 53.2392 80.7892 52.6118 84.4363 52.6118C90.2794 52.6118 95.848 54.1804 100.711 57.0823L95.2598 62.5333C88.7892 57.9059 81.4559 55.1608 73.9657 54.4157Z" fill="black"/>
</svg>

