<svg width="160" height="160" viewBox="0 0 160 160" fill="none" xmlns="http://www.w3.org/2000/svg">
<circle cx="80" cy="80" r="80" fill="white"/>
<path d="M92.9554 61.1083V80.2165C92.9554 83.7197 95.8216 86.586 99.3248 86.586H102.509V108.879C102.509 110.631 103.943 112.064 105.694 112.064C107.446 112.064 108.879 110.631 108.879 108.879V51.9681C108.879 49.8981 106.936 48.3694 104.93 48.8471C98.0509 50.535 92.9554 56.363 92.9554 61.1083ZM77.0318 70.6624H70.6624V51.5541C70.6624 49.8025 69.2292 48.3694 67.4776 48.3694C65.7261 48.3694 64.2929 49.8025 64.2929 51.5541V70.6624H57.9235V51.5541C57.9235 49.8025 56.4904 48.3694 54.7388 48.3694C52.9872 48.3694 51.5541 49.8025 51.5541 51.5541V70.6624C51.5541 77.7006 57.2547 83.4013 64.2929 83.4013V108.879C64.2929 110.631 65.7261 112.064 67.4776 112.064C69.2292 112.064 70.6624 110.631 70.6624 108.879V83.4013C77.7006 83.4013 83.4012 77.7006 83.4012 70.6624V51.5541C83.4012 49.8025 81.9681 48.3694 80.2165 48.3694C78.4649 48.3694 77.0318 49.8025 77.0318 51.5541V70.6624Z" fill="black"/>
</svg>
