<svg width="31" height="30" viewBox="0 0 31 30" fill="none" xmlns="http://www.w3.org/2000/svg">
<path d="M21.7212 8.81054C21.7212 8.81054 23.1088 8.26949 22.9932 9.58352C22.9546 10.1246 22.6077 12.0184 22.3379 14.0667L21.4128 20.1345C21.4128 20.1345 21.3358 21.0234 20.642 21.1779C19.9481 21.3325 18.9074 20.6369 18.7147 20.4823C18.5605 20.3664 15.8239 18.6272 14.8602 17.7769C14.5904 17.545 14.282 17.0812 14.8988 16.5402L18.946 12.6754C19.4085 12.2116 19.871 11.1294 17.9438 12.4435L12.5476 16.1151C12.5476 16.1151 11.9308 16.5015 10.7745 16.1537L8.26908 15.3807C8.26908 15.3807 7.344 14.801 8.92434 14.2213C12.7788 12.4048 17.5199 10.5497 21.7212 8.81054Z" fill="white"/>
<rect x="1.23636" y="0.736364" width="28.5273" height="28.5273" rx="14.2636" stroke="white" stroke-width="1.47273"/>
</svg>
