<svg width="50" height="51" viewBox="0 0 50 51" fill="none" xmlns="http://www.w3.org/2000/svg">
<circle cx="25" cy="25" r="25" transform="matrix(-1 0 0 1 50 0.350586)" fill="white" fill-opacity="0.9"/>
<path fill-rule="evenodd" clip-rule="evenodd" d="M19.2223 35.0928C19.2044 35.0762 19.1867 35.0592 19.1693 35.0417C18.4371 34.3095 18.4371 33.1223 19.1693 32.3901L26.1056 25.4538L19.1693 18.5175C18.4371 17.7852 18.4371 16.5981 19.1693 15.8658C19.1868 15.8483 19.2046 15.8312 19.2227 15.8145H21.7676C21.7856 15.8312 21.8034 15.8483 21.8209 15.8658L30.0831 24.128C30.1004 24.1453 30.1173 24.1629 30.1339 24.1808V26.7268C30.1173 26.7447 30.1004 26.7623 30.0831 26.7796L21.8209 35.0417C21.8035 35.0592 21.7858 35.0762 21.7679 35.0928L19.2223 35.0928Z" fill="#4C4C4C"/>
</svg>
