<svg width="160" height="160" viewBox="0 0 160 160" fill="none" xmlns="http://www.w3.org/2000/svg">
<circle cx="80" cy="80" r="80" fill="white"/>
<path d="M106.014 57.7295H98.5386C98.5386 46.8044 90.1664 37.9376 79.8507 37.9376C69.5351 37.9376 61.1629 46.8044 61.1629 57.7295H53.6878C49.5765 57.7295 46.2126 61.2921 46.2126 65.6463V113.147C46.2126 117.501 49.5765 121.064 53.6878 121.064H106.014C110.125 121.064 113.489 117.501 113.489 113.147V65.6463C113.489 61.2921 110.125 57.7295 106.014 57.7295ZM79.8507 45.8543C86.0551 45.8543 91.0634 51.1586 91.0634 57.7295H68.638C68.638 51.1586 73.6464 45.8543 79.8507 45.8543ZM106.014 113.147H53.6878V65.6463H106.014V113.147ZM79.8507 81.4799C73.6464 81.4799 68.638 76.1756 68.638 69.6047H61.1629C61.1629 80.5299 69.5351 89.3966 79.8507 89.3966C90.1664 89.3966 98.5386 80.5299 98.5386 69.6047H91.0634C91.0634 76.1756 86.0551 81.4799 79.8507 81.4799Z" fill="black"/>
</svg>
