<svg width="160" height="160" viewBox="0 0 160 160" fill="none" xmlns="http://www.w3.org/2000/svg">
<circle cx="80" cy="80" r="80" fill="white"/>
<path d="M79.9412 51.2647L106.412 71.1176V110.824H53.4706V71.1176L79.9412 51.2647ZM79.9412 40.2353L44.6471 66.7059V119.647H115.235V66.7059L79.9412 40.2353ZM93.1765 79.9412H77.7353V95.3824H62.2941V75.5294H57.8824V106.412H62.2941V99.7941H97.5882V106.412H102V88.7647C102 83.9118 98.0294 79.9412 93.1765 79.9412ZM70.0147 82.1471C66.9706 82.1471 64.5 84.6176 64.5 87.6618C64.5 90.7059 66.9706 93.1765 70.0147 93.1765C73.0588 93.1765 75.5294 90.7059 75.5294 87.6618C75.5294 84.6176 73.0588 82.1471 70.0147 82.1471Z" fill="black"/>
</svg>
