<svg width="160" height="160" viewBox="0 0 160 160" fill="none" xmlns="http://www.w3.org/2000/svg">
<circle cx="80" cy="80" r="80" fill="white"/>
<path d="M79.3725 56.6863C83.7042 56.6863 87.2157 53.1748 87.2157 48.8431C87.2157 44.5115 83.7042 41 79.3725 41C75.0409 41 71.5294 44.5115 71.5294 48.8431C71.5294 53.1748 75.0409 56.6863 79.3725 56.6863Z" fill="black"/>
<path d="M94.6274 64.9608C93.098 63.4314 90.4706 60.6078 85.3725 60.6078C84.549 60.6078 79.8039 60.6078 75.4118 60.6078C64.6274 60.5686 55.8431 51.7843 55.8431 41H48C48 53.3922 56.2745 63.902 67.6078 67.3137V119.431H75.451V95.902H83.2941V119.431H91.1373V72.5686L106.627 88.0588L112.157 82.5294L94.6274 64.9608Z" fill="black"/>
</svg>
