<svg width="160" height="160" viewBox="0 0 160 160" fill="none" xmlns="http://www.w3.org/2000/svg">
<circle cx="80" cy="80" r="80" fill="white"/>
<path d="M103.716 86.0337C103.216 91.7609 101.186 97.2191 97.8644 101.769C94.5426 106.32 90.0658 109.774 84.958 111.728C79.8502 113.682 74.3225 114.055 69.0219 112.803C63.7212 111.551 58.8668 108.727 55.0266 104.659C51.1864 100.592 48.5194 95.4512 47.3374 89.8374C46.1555 84.2235 46.5076 78.3693 48.3526 72.9597C50.1976 67.5501 53.4591 62.8088 57.7556 59.2907C62.052 55.7726 67.2056 53.6232 72.6134 53.0939C69.4473 57.6303 67.9238 63.2196 68.3199 68.8451C68.716 74.4707 71.0054 79.7588 74.7718 83.7477C78.5382 87.7366 83.5313 90.1613 88.843 90.5808C94.1547 91.0004 99.4322 89.3868 103.716 86.0337Z" stroke="#111111" stroke-width="5" stroke-linecap="round" stroke-linejoin="round"/>
<path d="M113.087 54.1002L115.329 48.8752L120.263 46.5001L115.329 44.1251L113.087 38.9L110.844 44.1251L105.911 46.5001L110.844 48.8752L113.087 54.1002Z" fill="black"/>
<path d="M113.087 65.5004L110.844 70.7255L105.911 73.1005L110.844 75.4756L113.087 80.7006L115.329 75.4756L120.263 73.1005L115.329 70.7255L113.087 65.5004Z" fill="black"/>
<path d="M99.6314 55.0503L95.1463 44.6001L90.6612 55.0503L80.7941 59.8003L90.6612 64.5504L95.1463 75.0006L99.6314 64.5504L109.499 59.8003L99.6314 55.0503ZM96.9224 61.6814L95.1463 65.8234L93.3702 61.6814L89.4592 59.8003L93.3702 57.9193L95.1463 53.7772L96.9224 57.9193L100.833 59.8003L96.9224 61.6814Z" fill="black"/>
</svg>
