<svg width="160" height="160" viewBox="0 0 160 160" fill="none" xmlns="http://www.w3.org/2000/svg">
<circle cx="80" cy="80" r="80" fill="white"/>
<path d="M106.216 102.137C91.3137 113.118 82.2157 103.706 80.0588 102.137C77.4706 104.059 68.6078 112.961 53.902 102.137C46.451 107.627 43.3922 107.51 40.8431 107.51V115.353C45.3922 115.353 49.8627 114.098 53.902 111.706C61.9804 116.49 71.9804 116.49 80.0588 111.706C88.1373 116.49 98.1373 116.49 106.216 111.706C110.255 114.098 114.725 115.353 119.275 115.353V107.51C116.686 107.51 113.392 107.431 106.216 102.137Z" fill="black"/>
<path d="M108.804 80.0588H119.275V72.2157H108.804C101.627 72.2157 95.7451 66.3333 95.7451 59.1569C95.7451 55.1569 97.2353 52.3333 100.02 46.0588C94.6471 45.2353 92.1765 44.7647 87.902 44.7647C61.8627 44.7647 41.4314 64.4902 40.8824 89.8627L40.8431 97.7059C45.3922 97.7059 49.8627 96.451 53.902 94.0588C61.9804 98.8431 71.9804 98.8431 80.0588 94.0588C88.1373 98.8431 98.1373 98.8431 106.216 94.0588C110.255 96.451 114.725 97.7059 119.275 97.7059V89.8627C116.686 89.8627 113.392 89.7843 106.216 84.4902C91.3137 95.4706 82.2157 86.0588 80.0588 84.4902C76.5294 87.1176 77.9412 86.098 76.4902 86.9608C73.7451 83.2745 72.2157 78.8824 72.2157 74.1765C72.2157 64.0588 79.1569 55.5882 88.7255 53.2745C88.2157 55.2745 87.902 57.2745 87.902 59.1569C87.902 70.6863 97.2745 80.0588 108.804 80.0588ZM53.902 84.4902C51.4706 86.2941 50.6863 86.9608 48.8039 87.902C49.8627 74.0588 58.1373 62.4902 70.098 56.6863C66.4902 61.5882 64.3726 67.6275 64.3726 74.1765C64.3726 79.7451 65.9412 85.0392 68.8039 89.6667C65.9804 89.9412 61.7843 90.2549 53.902 84.4902Z" fill="black"/>
</svg>

