<svg width="31" height="30" viewBox="0 0 31 30" fill="none" xmlns="http://www.w3.org/2000/svg">
<rect x="1.23636" y="0.736364" width="28.5273" height="28.5273" rx="14.2636" stroke="white" stroke-width="1.47273"/>
<path d="M22.6997 19.0302V21.2883C22.7006 21.4979 22.6576 21.7054 22.5734 21.8975C22.4893 22.0896 22.3658 22.262 22.2111 22.4037C22.0563 22.5454 21.8736 22.6533 21.6746 22.7205C21.4756 22.7876 21.2648 22.8126 21.0556 22.7937C18.7348 22.542 16.5055 21.7506 14.5469 20.4829C12.7246 19.3272 11.1796 17.7853 10.0217 15.9667C8.74709 14.003 7.95388 11.7674 7.70632 9.44077C7.68747 9.23262 7.71226 9.02284 7.7791 8.82477C7.84594 8.62671 7.95337 8.44471 8.09455 8.29035C8.23573 8.136 8.40757 8.01267 8.59913 7.92823C8.79068 7.84379 8.99776 7.80007 9.20717 7.79988H11.4698C11.8358 7.79628 12.1906 7.92564 12.4681 8.16383C12.7457 8.40203 12.9269 8.73281 12.9781 9.09452C13.0736 9.81717 13.2508 10.5267 13.5061 11.2096C13.6076 11.479 13.6295 11.7718 13.5694 12.0533C13.5092 12.3348 13.3695 12.5932 13.1667 12.7978L12.2089 13.7537C13.2825 15.6382 14.8459 17.1984 16.734 18.27L17.6919 17.314C17.8969 17.1117 18.1558 16.9722 18.4379 16.9122C18.7199 16.8521 19.0133 16.874 19.2832 16.9753C19.9675 17.2301 20.6784 17.4069 21.4025 17.5022C21.7689 17.5538 22.1035 17.738 22.3426 18.0197C22.5818 18.3014 22.7089 18.661 22.6997 19.0302Z" stroke="white" stroke-width="2" stroke-linecap="round" stroke-linejoin="round"/>
</svg>
